Coordinates
version=1
nRows=21
nColumns=38
inDegrees=no

Units are S.I. units (second, meters, Newtons, ...)
If the header above contains a line with 'inDegrees', this indicates whether rotational values are in degrees (yes) or radians (no).

endheader
time	pelvis_tilt	pelvis_list	pelvis_rotation	pelvis_tx	pelvis_ty	pelvis_tz	hip_flexion_r	hip_adduction_r	hip_rotation_r	knee_angle_r	ankle_angle_r	subtalar_angle_r	mtp_angle_r	hip_flexion_l	hip_adduction_l	hip_rotation_l	knee_angle_l	ankle_angle_l	subtalar_angle_l	mtp_angle_l	lumbar_extension	lumbar_bending	lumbar_rotation	arm_flex_r	arm_add_r	arm_rot_r	elbow_flex_r	pro_sup_r	wrist_flex_r	wrist_dev_r	arm_flex_l	arm_add_l	arm_rot_l	elbow_flex_l	pro_sup_l	wrist_flex_l	wrist_dev_l
2.65	-0.137214	-0.114956	0.118154	0.786787	0.918321	-0.317512	0.929163	0.0351073	-0.234229	-0.650793	0.143897	0.0256835	-4.45709e-05	-0.353203	-0.134222	-0.0815172	-0.769172	-0.634657	0.00136458	-9.88808e-05	-0.197378	0.168303	-0.178141	-1.06991	-0.237208	-0.337276	1.71186	1.45779	0.0998652	0.0738132	0.324718	-0.588347	0.0952348	2.19821	1.94804	0.0997978	-0.0973566
2.66	-0.124907	-0.107612	0.104442	0.788362	0.913285	-0.316375	0.88174	0.0448407	-0.244314	-0.607514	0.121627	0.0256835	-4.45709e-05	-0.334394	-0.133431	-0.0925864	-0.927413	-0.638223	0.00136458	-9.88808e-05	-0.212157	0.158516	-0.159012	-1.04717	-0.249981	-0.320905	1.72197	1.46602	0.0998652	0.0738132	0.291046	-0.572088	0.103179	2.17373	1.95745	0.0997978	-0.0973566
2.67	-0.112348	-0.105756	0.0860575	0.789669	0.907465	-0.314619	0.840503	0.0598437	-0.255484	-0.598826	0.100473	0.0256835	-4.45709e-05	-0.309545	-0.139797	-0.108228	-1.09299	-0.630497	0.00136458	-9.88808e-05	-0.22756	0.152963	-0.132495	-1.0159	-0.268354	-0.302725	1.72977	1.47267	0.0998652	0.0738132	0.248493	-0.553742	0.106725	2.14105	1.96712	0.0997978	-0.0973566
2.68	-0.10027	-0.109933	0.0634295	0.79044	0.901348	-0.312316	0.806263	0.0809712	-0.26487	-0.621449	0.0862935	0.0256835	-4.45709e-05	-0.27799	-0.153805	-0.127914	-1.26048	-0.614475	0.00136458	-9.88808e-05	-0.243352	0.152101	-0.0989882	-0.975252	-0.291642	-0.282509	1.73461	1.47745	0.0998652	0.0738132	0.199402	-0.533528	0.105865	2.10175	1.97711	0.0997978	-0.0973566
2.69	-0.0890398	-0.119828	0.037639	0.790468	0.895811	-0.309625	0.778055	0.108131	-0.269782	-0.669048	0.0845256	0.0256835	-4.45709e-05	-0.238663	-0.174355	-0.149123	-1.42508	-0.592491	0.00136458	-9.88808e-05	-0.259556	0.155622	-0.0598245	-0.924524	-0.318929	-0.259935	1.73598	1.48061	0.0998652	0.0738132	0.146017	-0.511796	0.100626	2.05784	1.98779	0.0997978	-0.0973566
2.7	-0.0788333	-0.13424	0.0104431	0.789627	0.891587	-0.306704	0.753422	0.140057	-0.26839	-0.733099	0.0988723	0.0256835	-4.45709e-05	-0.190201	-0.198906	-0.168001	-1.58258	-0.566241	0.00136458	-9.88808e-05	-0.276183	0.162466	-0.0172665	-0.863459	-0.349121	-0.234707	1.73388	1.48274	0.0998652	0.0738132	0.0902421	-0.489118	0.0911471	2.01162	1.99998	0.0997978	-0.0973566
2.71	-0.0697959	-0.15114	-0.0158987	0.787878	0.888732	-0.303734	0.729108	0.174348	-0.260053	-0.804215	0.130463	0.0256835	-4.45709e-05	-0.131131	-0.223905	-0.180369	-1.72932	-0.53686	0.00136458	-9.88808e-05	-0.292962	0.170965	0.0257373	-0.792578	-0.381	-0.206747	1.72907	1.48452	0.0998652	0.0738132	0.0335278	-0.466328	0.077788	1.96545	2.01478	0.0997978	-0.0973566
2.72	-0.062118	-0.16793	-0.0389789	0.785276	0.886926	-0.301074	0.701875	0.207791	-0.245272	-0.873533	0.17777	0.0256835	-4.45709e-05	-0.0601572	-0.245387	-0.182797	-1.86212	-0.504992	0.00136458	-9.88808e-05	-0.309184	0.179094	0.0660161	-0.713359	-0.413318	-0.176377	1.72321	1.48654	0.0998652	0.0738132	-0.0231055	-0.444489	0.0612058	1.9216	2.03332	0.0997978	-0.0973566
2.73	-0.0560598	-0.181874	-0.0566877	0.78199	0.885934	-0.299124	0.669125	0.236926	-0.225404	-0.933739	0.237155	0.0256835	-4.45709e-05	0.023437	-0.259691	-0.173505	-1.97818	-0.470915	0.00136458	-9.88808e-05	-0.323773	0.184783	0.100776	-0.628209	-0.444921	-0.144418	1.71871	1.48911	0.0998652	0.0738132	-0.0789799	-0.424786	0.0423594	1.8821	2.05633	0.0997978	-0.0973566
2.74	-0.0519328	-0.190585	-0.0676502	0.778273	0.885672	-0.298004	0.629152	0.25867	-0.202242	-0.979508	0.303644	0.0256835	-4.45709e-05	0.119387	-0.264133	-0.152901	-2.07505	-0.43468	0.00136458	-9.88808e-05	-0.335535	0.186194	0.128145	-0.540177	-0.474925	-0.112099	1.71841	1.49214	0.0998652	0.0738132	-0.133693	-0.40835	0.0223898	1.84856	2.08369	0.0997978	-0.0973566
2.75	-0.0500236	-0.192399	-0.0715264	0.774383	0.886101	-0.297527	0.581091	0.270812	-0.17764	-1.00741	0.371614	0.0256835	-4.45709e-05	0.226193	-0.257491	-0.123602	-2.15067	-0.396245	0.00136458	-9.88808e-05	-0.343425	0.181915	0.147487	-0.452504	-0.50288	-0.0808147	1.72505	1.49505	0.0998652	0.0738132	-0.187116	-0.396066	0.00239986	1.82216	2.11396	0.0997978	-0.0973566
2.76	-0.0505818	-0.186471	-0.0690614	0.770588	0.887151	-0.297451	0.524706	0.272243	-0.153221	-1.01558	0.435254	0.0256835	-4.45709e-05	0.341106	-0.240107	-0.0899271	-2.20345	-0.355563	0.00136458	-9.88808e-05	-0.346775	0.171046	0.159416	-0.368112	-0.528837	-0.0518143	1.74068	1.49685	0.0998652	0.0738132	-0.239406	-0.388387	-0.0167764	1.80354	2.14431	0.0997978	-0.0973566
2.77	-0.0537045	-0.17272	-0.0619336	0.767157	0.888734	-0.297609	0.460232	0.26289	-0.130252	-1.00334	0.48886	0.0256835	-4.45709e-05	0.460385	-0.21365	-0.0570282	-2.23231	-0.312634	0.00136458	-9.88808e-05	-0.34534	0.153177	0.165526	-0.289246	-0.553277	-0.0259968	1.76631	1.49641	0.0998652	0.0738132	-0.290982	-0.385236	-0.0347279	1.79279	2.17086	0.0997978	-0.0973566
2.78	-0.0593354	-0.151724	-0.0523823	0.764336	0.890809	-0.297855	0.388313	0.24348	-0.109678	-0.971037	0.52705	0.0256835	-4.45709e-05	0.579739	-0.180617	-0.0298669	-2.23681	-0.267556	0.00136458	-9.88808e-05	-0.33926	0.128334	0.16797	-0.217329	-0.576923	-0.00387205	1.80172	1.49285	0.0998652	0.0738132	-0.342421	-0.385989	-0.0515261	1.78944	2.18967	0.0997978	-0.0973566
2.79	-0.0672734	-0.124559	-0.0427522	0.762311	0.893358	-0.29808	0.309993	0.215299	-0.0922877	-0.919929	0.545009	0.0256835	-4.45709e-05	0.694808	-0.143824	-0.0122586	-2.21716	-0.220592	0.00136458	-9.88808e-05	-0.328983	0.0970068	0.169048	-0.153066	-0.60049	0.0143163	1.84566	1.48594	0.0998652	0.0738132	-0.394269	-0.389574	-0.0676631	1.7925	2.19819	0.0997978	-0.0973566
2.8	-0.0771195	-0.092716	-0.035084	0.761209	0.896375	-0.298261	0.22674	0.180049	-0.078861	-0.852273	0.538786	0.0256835	-4.45709e-05	0.801576	-0.105988	-0.00620568	-2.17415	-0.172238	0.00136458	-9.88808e-05	-0.315184	0.0602215	0.170884	-0.0966853	-0.624474	0.0284036	1.89612	1.47634	0.0998652	0.0738132	-0.446834	-0.394647	-0.0838537	1.80061	2.196	0.0997978	-0.0973566
2.81	-0.0882984	-0.0580341	-0.0308066	0.761036	0.899832	-0.298441	0.140446	0.139766	-0.0701823	-0.771446	0.505701	0.0256835	-4.45709e-05	0.896647	-0.0694291	-0.0116313	-2.10909	-0.123269	0.00136458	-9.88808e-05	-0.298719	0.0195877	0.175184	-0.0482007	-0.649028	0.0381937	1.95081	1.46533	0.0998652	0.0738132	-0.500029	-0.399792	-0.100797	1.81229	2.18485	0.0997978	-0.0973566
2.82	-0.100114	-0.0226236	-0.030588	0.761675	0.903685	-0.298687	0.0534344	0.0967902	-0.0668892	-0.682085	0.444845	0.0256835	-4.45709e-05	0.977404	-0.0359303	-0.026564	-2.02361	-0.074692	0.00136458	-9.88808e-05	-0.280558	-0.0227424	0.183074	-0.00759592	-0.673932	0.0434523	2.0074	1.45455	0.0998652	0.0738132	-0.553336	-0.403687	-0.118983	1.82608	2.16806	0.0997978	-0.0973566
2.83	-0.111834	0.0112682	-0.034339	0.762927	0.907872	-0.299041	-0.0315858	0.053708	-0.0691821	-0.59012	0.35757	0.0256835	-4.45709e-05	1.04206	-0.00672582	-0.0477058	-1.91962	-0.0276178	0.00136458	-9.88808e-05	-0.261721	-0.0642198	0.195011	0.025097	-0.698641	0.044005	2.06382	1.44547	0.0998652	0.0738132	-0.60587	-0.405224	-0.138573	1.8408	2.14946	0.0997978	-0.0973566
2.84	-0.122771	0.0414272	-0.041339	0.764562	0.912297	-0.299505	-0.11165	0.0132427	-0.0765135	-0.502569	0.247762	0.0256835	-4.45709e-05	1.08964	0.0174064	-0.0712007	-1.79923	0.0168872	0.00136458	-9.88808e-05	-0.243213	-0.102134	0.210764	0.0498087	-0.722378	0.0398591	2.11828	1.4391	0.0998652	0.0738132	-0.656506	-0.403559	-0.159402	1.85556	2.13241	0.0997978	-0.0973566
2.85	-0.132344	0.0658649	-0.050442	0.766354	0.916814	-0.300035	-0.183791	-0.0219255	-0.0873911	-0.427043	0.121717	0.0256835	-4.45709e-05	1.11991	0.0360307	-0.0933985	-1.66484	0.0578914	0.00136458	-9.88808e-05	-0.225971	-0.133913	0.229495	0.0664961	-0.744226	0.0313037	2.16928	1.43589	0.0998652	0.0738132	-0.704037	-0.39813	-0.181061	1.86983	2.11917	0.0997978	-0.0973566
